HIERARCHY
ROOT Hips
{
	OFFSET 0.000000 83.214638 0.000000
	CHANNELS 6 Xposition Yposition Zposition Xrotation Yrotation Zrotation
	JOINT Pelvis
	{
		OFFSET 0.000000 0.000000 0.000000
		CHANNELS 3 Xrotation Yrotation Zrotation
		JOINT LeftUpLeg
		{
			OFFSET 8.479700 -4.795502 -0.379100
			CHANNELS 3 Xrotation Yrotation Zrotation
			JOINT LeftLeg
			{
				OFFSET 0.024144 -32.555107 0.112900
				CHANNELS 3 Xrotation Yrotation Zrotation
				JOINT LeftFoot
				{
					OFFSET -0.024144 -32.638630 -3.012600
					CHANNELS 3 Xrotation Yrotation Zrotation
					JOINT LeftToeBase
					{
						OFFSET 0.970200 -13.225400 11.864200
						CHANNELS 3 Xrotation Yrotation Zrotation
						End Site
						{
							OFFSET 0.000000 12.319262 0.000000
						}
					}
					JOINT LFootTongue
					{
						OFFSET 1.142400 -1.059800 6.665200
						CHANNELS 3 Xrotation Yrotation Zrotation
						End Site
						{
							OFFSET 0.000000 12.319262 0.000000
						}
					}
				}
				JOINT LeftPantLeg
				{
					OFFSET 0.918482 -16.533964 -2.284700
					CHANNELS 3 Xrotation Yrotation Zrotation
					End Site
					{
						OFFSET 0.350399 24.744368 0.000000
					}
				}
			}
		}
		JOINT RightUpLeg
		{
			OFFSET -8.479700 -4.795502 -0.379100
			CHANNELS 3 Xrotation Yrotation Zrotation
			JOINT RightLeg
			{
				OFFSET -0.023144 -32.555092 0.112900
				CHANNELS 3 Xrotation Yrotation Zrotation
				JOINT RightFoot
				{
					OFFSET 0.023144 -32.638641 -3.012700
					CHANNELS 3 Xrotation Yrotation Zrotation
					JOINT RightToeBase
					{
						OFFSET -0.970200 -13.225400 11.864200
						CHANNELS 3 Xrotation Yrotation Zrotation
						End Site
						{
							OFFSET 0.000000 12.319244 0.000000
						}
					}
					JOINT RFootTongue
					{
						OFFSET -1.142200 -1.059800 6.665200
						CHANNELS 3 Xrotation Yrotation Zrotation
						End Site
						{
							OFFSET 0.000000 12.319243 0.000000
						}
					}
				}
				JOINT RightPantLeg
				{
					OFFSET -0.919482 -16.533978 -2.284800
					CHANNELS 3 Xrotation Yrotation Zrotation
					End Site
					{
						OFFSET -0.350400 24.744419 0.000000
					}
				}
			}
		}
	}
	JOINT Spine
	{
		OFFSET 0.000000 7.722000 1.166200
		CHANNELS 3 Xrotation Yrotation Zrotation
		JOINT Spine1
		{
			OFFSET 0.000000 12.024101 0.248800
			CHANNELS 3 Xrotation Yrotation Zrotation
			JOINT Spine2
			{
				OFFSET 0.000000 11.502998 -0.491200
				CHANNELS 3 Xrotation Yrotation Zrotation
				JOINT Neck
				{
					OFFSET 0.000000 18.430702 -3.123100
					CHANNELS 3 Xrotation Yrotation Zrotation
					JOINT Head
					{
						OFFSET 0.000000 9.051102 1.034000
						CHANNELS 3 Xrotation Yrotation Zrotation
						JOINT HairB
						{
							OFFSET 0.208400 24.786102 24.822300
							CHANNELS 3 Xrotation Yrotation Zrotation
							End Site
							{
								OFFSET 0.000000 32.263779 0.000000
							}
						}
						JOINT HairA
						{
							OFFSET -7.081100 24.428299 23.196600
							CHANNELS 3 Xrotation Yrotation Zrotation
							End Site
							{
								OFFSET 0.000000 32.263779 0.000000
							}
						}
						JOINT Hat
						{
							OFFSET 16.728800 15.048294 -15.439601
							CHANNELS 3 Xrotation Yrotation Zrotation
							End Site
							{
								OFFSET 0.000000 32.263779 0.000000
							}
						}
					}
				}
				JOINT LeftShoulder
				{
					OFFSET 6.197800 13.665199 -4.064700
					CHANNELS 3 Xrotation Yrotation Zrotation
					JOINT LeftArm
					{
						OFFSET 7.778100 -0.187103 -1.709300
						CHANNELS 3 Xrotation Yrotation Zrotation
						JOINT LeftForeArm
						{
							OFFSET 22.049376 0.000000 0.000000
							CHANNELS 3 Xrotation Yrotation Zrotation
							JOINT LeftHand
							{
								OFFSET 23.009392 0.000000 0.000000
								CHANNELS 3 Xrotation Yrotation Zrotation
								JOINT LeftHandThumb1
								{
									OFFSET 3.507191 -2.063065 3.133727
									CHANNELS 3 Xrotation Yrotation Zrotation
									JOINT LeftHandThumb2
									{
										OFFSET 3.101337 -1.790558 1.790558
										CHANNELS 3 Xrotation Yrotation Zrotation
										JOINT LeftHandThumb3
										{
											OFFSET 3.058640 -1.765907 1.765906
											CHANNELS 3 Xrotation Yrotation Zrotation
											End Site
											{
												OFFSET -0.415260 3.926476 -0.049563
											}
										}
									}
								}
								JOINT LeftHandIndex1
								{
									OFFSET 11.334419 -0.901459 3.706815
									CHANNELS 3 Xrotation Yrotation Zrotation
									JOINT LeftHandIndex2
									{
										OFFSET 3.283112 0.000000 0.000000
										CHANNELS 3 Xrotation Yrotation Zrotation
										JOINT LeftHandIndex3
										{
											OFFSET 3.323853 0.000000 0.000000
											CHANNELS 3 Xrotation Yrotation Zrotation
											End Site
											{
												OFFSET -1.135597 3.097809 0.402452
											}
										}
									}
								}
								JOINT LeftHandMiddle1
								{
									OFFSET 11.335861 0.000000 0.000000
									CHANNELS 3 Xrotation Yrotation Zrotation
									JOINT LeftHandMiddle2
									{
										OFFSET 3.410492 0.000000 0.000000
										CHANNELS 3 Xrotation Yrotation Zrotation
										JOINT LeftHandMiddle3
										{
											OFFSET 3.312172 0.000000 0.000000
											CHANNELS 3 Xrotation Yrotation Zrotation
											End Site
											{
												OFFSET -1.150200 3.080154 0.400270
											}
										}
									}
								}
								JOINT LeftHandRing1
								{
									OFFSET 11.514786 -0.013176 -3.003090
									CHANNELS 3 Xrotation Yrotation Zrotation
									JOINT LeftHandRing2
									{
										OFFSET 3.053307 0.000000 0.000000
										CHANNELS 3 Xrotation Yrotation Zrotation
										JOINT LeftHandRing3
										{
											OFFSET 3.295807 0.000000 0.000000
											CHANNELS 3 Xrotation Yrotation Zrotation
											End Site
											{
												OFFSET -1.281006 3.013344 0.375733
											}
										}
									}
								}
								JOINT LeftHandPinky1
								{
									OFFSET 10.518692 -0.960396 -5.730441
									CHANNELS 3 Xrotation Yrotation Zrotation
									JOINT LeftHandPinky2
									{
										OFFSET 2.861649 0.000000 0.000000
										CHANNELS 3 Xrotation Yrotation Zrotation
										JOINT LeftHandPinky3
										{
											OFFSET 2.863380 0.000000 0.000000
											CHANNELS 3 Xrotation Yrotation Zrotation
											End Site
											{
												OFFSET -0.843597 2.711159 0.369971
											}
										}
									}
								}
							}
							JOINT LSleeve
							{
								OFFSET 6.676277 -0.344902 -1.011730
								CHANNELS 3 Xrotation Yrotation Zrotation
								End Site
								{
									OFFSET 0.000000 14.885353 0.000000
								}
							}
						}
					}
				}
				JOINT RightShoulder
				{
					OFFSET -6.197800 13.665199 -4.064700
					CHANNELS 3 Xrotation Yrotation Zrotation
					JOINT RightArm
					{
						OFFSET -7.778100 -0.187103 -1.709300
						CHANNELS 3 Xrotation Yrotation Zrotation
						JOINT RightForeArm
						{
							OFFSET -22.049376 0.000000 0.000000
							CHANNELS 3 Xrotation Yrotation Zrotation
							JOINT RightHand
							{
								OFFSET -23.009392 0.000000 0.000000
								CHANNELS 3 Xrotation Yrotation Zrotation
								JOINT RightHandThumb1
								{
									OFFSET -3.507191 -2.063065 3.133727
									CHANNELS 3 Xrotation Yrotation Zrotation
									JOINT RightHandThumb2
									{
										OFFSET -3.101337 -1.790558 1.790558
										CHANNELS 3 Xrotation Yrotation Zrotation
										JOINT RightHandThumb3
										{
											OFFSET -3.058640 -1.765907 1.765906
											CHANNELS 3 Xrotation Yrotation Zrotation
											End Site
											{
												OFFSET 0.415260 3.926476 -0.049563
											}
										}
									}
								}
								JOINT RightHandIndex1
								{
									OFFSET -11.334419 -0.901459 3.706815
									CHANNELS 3 Xrotation Yrotation Zrotation
									JOINT RightHandIndex2
									{
										OFFSET -3.283112 0.000000 0.000000
										CHANNELS 3 Xrotation Yrotation Zrotation
										JOINT RightHandIndex3
										{
											OFFSET -3.323853 0.000000 0.000000
											CHANNELS 3 Xrotation Yrotation Zrotation
											End Site
											{
												OFFSET 1.135597 3.097809 0.402452
											}
										}
									}
								}
								JOINT RightHandMiddle1
								{
									OFFSET -11.335861 0.000000 0.000000
									CHANNELS 3 Xrotation Yrotation Zrotation
									JOINT RightHandMiddle2
									{
										OFFSET -3.410492 0.000000 0.000000
										CHANNELS 3 Xrotation Yrotation Zrotation
										JOINT RightHandMiddle3
										{
											OFFSET -3.312172 0.000000 0.000000
											CHANNELS 3 Xrotation Yrotation Zrotation
											End Site
											{
												OFFSET 1.150200 3.080154 0.400270
											}
										}
									}
								}
								JOINT RightHandRing1
								{
									OFFSET -11.514786 -0.013176 -3.003090
									CHANNELS 3 Xrotation Yrotation Zrotation
									JOINT RightHandRing2
									{
										OFFSET -3.053307 0.000000 0.000000
										CHANNELS 3 Xrotation Yrotation Zrotation
										JOINT RightHandRing3
										{
											OFFSET -3.295807 0.000000 0.000000
											CHANNELS 3 Xrotation Yrotation Zrotation
											End Site
											{
												OFFSET 1.281006 3.013344 0.375733
											}
										}
									}
								}
								JOINT RightHandPinky1
								{
									OFFSET -10.518692 -0.960396 -5.730441
									CHANNELS 3 Xrotation Yrotation Zrotation
									JOINT RightHandPinky2
									{
										OFFSET -2.861649 0.000000 0.000000
										CHANNELS 3 Xrotation Yrotation Zrotation
										JOINT RightHandPinky3
										{
											OFFSET -2.863380 0.000000 0.000000
											CHANNELS 3 Xrotation Yrotation Zrotation
											End Site
											{
												OFFSET 0.843597 2.711159 0.369971
											}
										}
									}
								}
							}
							JOINT RSleeve
							{
								OFFSET -6.676277 -0.344902 -1.011730
								CHANNELS 3 Xrotation Yrotation Zrotation
								End Site
								{
									OFFSET 0.000000 14.885353 0.000000
								}
							}
						}
					}
				}
				JOINT Backpack
				{
					OFFSET 0.000000 -2.471497 36.677502
					CHANNELS 3 Xrotation Yrotation Zrotation
					End Site
					{
						OFFSET 0.000000 20.427315 0.000000
					}
				}
				JOINT Hood
				{
					OFFSET 0.000000 18.754097 -10.431000
					CHANNELS 3 Xrotation Yrotation Zrotation
					JOINT Hood1
					{
						OFFSET 0.000000 -5.011002 -7.685901
						CHANNELS 3 Xrotation Yrotation Zrotation
						End Site
						{
							OFFSET 0.000000 9.175140 0.000000
						}
					}
				}
				JOINT LHoodieString
				{
					OFFSET 5.250500 16.397697 3.089900
					CHANNELS 3 Xrotation Yrotation Zrotation
					JOINT LHoodieString1
					{
						OFFSET 0.257700 -6.364304 3.694600
						CHANNELS 3 Xrotation Yrotation Zrotation
						JOINT LHoodieString2
						{
							OFFSET 0.000000 -9.643799 2.679100
							CHANNELS 3 Xrotation Yrotation Zrotation
							End Site
							{
								OFFSET 0.000000 10.009018 0.000000
							}
						}
					}
				}
				JOINT RHoodieString
				{
					OFFSET -5.250500 16.397697 3.089900
					CHANNELS 3 Xrotation Yrotation Zrotation
					JOINT RHoodieString1
					{
						OFFSET -0.257700 -6.364304 3.694600
						CHANNELS 3 Xrotation Yrotation Zrotation
						JOINT RHoodieString2
						{
							OFFSET 0.000000 -9.643799 2.679100
							CHANNELS 3 Xrotation Yrotation Zrotation
							End Site
							{
								OFFSET 0.000000 10.009018 0.000000
							}
						}
					}
				}
			}
			JOINT LBackpack_Strap
			{
				OFFSET 15.223200 -7.719803 -6.610900
				CHANNELS 3 Xrotation Yrotation Zrotation
				End Site
				{
					OFFSET 0.000000 16.040596 0.000000
				}
			}
			JOINT RBackpack_Strap
			{
				OFFSET -15.223000 -7.719803 -6.610900
				CHANNELS 3 Xrotation Yrotation Zrotation
				End Site
				{
					OFFSET 0.000000 16.040596 0.000000
				}
			}
		}
	}
	JOINT BoyFacialAnim_Joint
	{
		OFFSET 1.000000 -82.208099 -1.550900
		CHANNELS 3 Xrotation Yrotation Zrotation
		End Site
		{
			OFFSET 0.000000 30.012791 0.000000
		}
	}
}
MOTION
Frames: 4
Frame Time: 0.016667
-0.203956 80.775414 0.570619 2.379618 -11.981316 -0.555506 -0.000000 0.000001 -0.000000 -19.395507 11.951037 13.840636 20.692237 5.101122 1.905632 -2.253135 5.345813 -11.029065 -0.000000 -0.000000 -0.000000 -0.000000 -0.000000 0.000000 -0.000001 -0.000001 0.000000 -12.771516 -8.405441 -6.876792 21.725886 -5.116522 -1.776054 -10.544477 -0.583063 8.993696 -0.000000 0.000000 -0.000000 -0.000000 0.000000 -0.000000 0.000001 -0.000000 -0.000000 9.422355 2.006498 0.474675 2.870547 4.029877 0.917350 -9.001476 3.754921 1.727677 -3.884245 2.070162 -6.983151 5.913064 -0.105760 7.514577 0.000001 0.000000 0.000000 0.000001 0.000000 0.000000 0.000001 0.000000 0.000000 -1.295775 0.077918 -4.827720 -3.652865 -0.069589 -73.007038 -0.000050 -15.717671 -0.000389 2.306653 0.164980 -5.013154 8.265293 -7.734431 18.880840 5.407306 20.572716 -9.835092 0.000001 -0.000002 0.000001 0.273656 -4.246502 -3.910700 0.097435 -0.794741 -17.447653 -0.000001 0.000000 -0.000004 0.248925 -1.909202 -12.464986 -0.126917 -0.878903 -17.469107 0.000001 0.000002 0.000000 0.311233 -1.760776 -17.977505 -0.194369 -1.090512 -20.983234 0.000000 0.000001 -0.000000 0.622125 -0.700693 -24.132870 -0.024681 -0.945238 -17.465309 0.000001 0.000002 0.000000 0.000001 -0.000001 -0.000001 -1.295768 -0.077837 4.827748 3.909176 3.069878 67.997750 -0.000003 18.089259 0.000002 2.313891 -1.592965 -2.170064 8.265273 7.734435 -18.880813 5.407350 -20.572673 9.835186 -0.000001 -0.000001 -0.000002 0.272408 4.252684 3.917192 0.097391 0.794939 17.452755 0.000001 0.000000 0.000000 0.250215 1.903639 12.463721 -0.126984 0.878944 17.470169 0.000002 0.000000 0.000003 0.310426 1.762616 17.988997 -0.194383 1.090564 20.984684 -0.000003 -0.000002 0.000002 0.626359 0.701967 24.132124 -0.024622 0.945186 17.464141 0.000000 0.000003 0.000004 0.000000 -0.000000 0.000000 -0.000000 -0.000000 0.000000 -0.000000 -0.000000 0.000000 -0.000000 -0.000000 0.000000 -0.000000 -0.000000 0.000000 -0.000000 -0.000000 0.000000 -0.000000 -0.000000 -0.000000 -0.000000 -0.000000 0.000000 -0.000000 -0.000000 0.000000 -0.000000 -0.000000 -0.000000 -0.000001 -0.000000 0.000000 -0.000001 -0.000000 0.000000 -0.000000 0.000001 -0.000000 
-0.161743 80.770256 0.584751 2.552307 -12.062338 -0.568229 -0.000000 0.000000 -0.000000 -19.613766 11.902867 13.863746 20.827451 5.163846 1.915209 -2.330924 5.395382 -11.023702 -0.000000 -0.000000 -0.000000 -0.000000 -0.000000 -0.000000 -0.000000 0.000000 -0.000000 -12.937367 -8.395735 -6.859657 21.674536 -5.077220 -1.770892 -10.495753 -0.553524 9.013104 0.000000 -0.000000 -0.000000 0.000000 -0.000000 -0.000000 -0.000001 -0.000001 0.000001 9.397779 1.923741 0.495546 2.806027 4.034561 0.910477 -9.063598 3.756301 1.734031 -4.162335 1.706293 -7.754409 6.269309 -1.220015 8.671232 0.000000 0.000000 -0.000000 0.000000 0.000000 -0.000000 0.000000 0.000000 -0.000000 -1.298115 0.155753 -4.850347 -3.189658 0.061113 -72.936742 -0.000017 -16.015504 -0.000207 3.331690 -0.184961 -5.638283 8.273800 -7.737121 18.864337 5.390319 20.552447 -9.830158 0.000000 0.000001 0.000001 0.270694 -4.248334 -3.950678 0.097115 -0.795830 -17.472105 -0.000001 -0.000001 0.000002 0.246391 -1.912592 -12.540547 -0.127537 -0.880736 -17.507093 0.000004 0.000000 0.000000 0.308626 -1.764634 -18.061517 -0.195021 -1.092077 -21.014981 -0.000001 0.000001 -0.000000 0.621591 -0.702836 -24.174713 -0.025602 -0.948274 -17.523257 0.000001 -0.000000 -0.000000 0.000001 -0.000003 0.000000 -1.275743 -0.132166 4.800658 4.101212 3.268593 67.974500 0.000930 18.208670 -0.000184 2.345987 -1.166087 -2.036968 8.265279 7.734435 -18.880811 5.407350 -20.572673 9.835186 -0.000002 0.000001 0.000003 0.272063 4.256424 3.991455 0.096757 0.796878 17.496458 -0.000001 -0.000002 -0.000000 0.248837 1.912041 12.629776 -0.128509 0.883668 17.567539 -0.000000 -0.000002 -0.000002 0.304019 1.771974 18.193770 -0.195448 1.093394 21.041598 -0.000001 -0.000002 0.000000 0.625177 0.706778 24.225479 -0.026350 0.950789 17.571481 0.000002 0.000001 0.000000 0.000000 -0.000000 0.000001 0.000001 -0.000000 0.000000 0.000001 -0.000000 0.000000 0.000001 -0.000000 0.000000 0.000001 -0.000000 0.000000 0.000001 -0.000000 -0.000000 0.000000 -0.000000 -0.000000 0.000001 -0.000000 0.000000 0.000001 -0.000000 -0.000000 0.000000 -0.000000 -0.000000 0.000000 0.000000 -0.000000 0.000000 0.000000 -0.000000 -0.000000 0.000000 -0.000000 
-0.041249 80.758850 0.598524 2.726678 -12.114773 -0.581121 0.000000 -0.000000 0.000000 -19.915715 11.853640 13.831416 21.106260 5.213386 1.928214 -2.491059 5.438423 -10.952880 -0.000000 0.000000 -0.000000 -0.000000 0.000000 -0.000000 -0.000000 0.000001 0.000000 -13.117150 -8.371031 -6.908327 21.611815 -5.052022 -1.766042 -10.412636 -0.538178 9.098351 0.000000 -0.000000 0.000000 0.000000 -0.000000 0.000000 -0.000000 0.000001 0.000000 9.394707 1.822747 0.538717 2.763055 4.049153 0.909946 -9.100127 3.757395 1.768803 -4.412550 1.409383 -8.672616 6.710945 -2.881740 10.234382 0.000001 -0.000000 0.000001 0.000001 -0.000000 0.000001 0.000001 -0.000000 0.000001 -1.303887 0.333881 -4.902909 -3.050630 0.056951 -72.883357 -0.000014 -15.382366 -0.000247 4.405431 -1.213638 -6.241254 8.292464 -7.742946 18.828409 5.350624 20.509294 -9.813127 -0.000001 0.000001 0.000002 0.264216 -4.252224 -4.038096 0.096378 -0.798198 -17.525695 -0.000002 -0.000001 -0.000000 0.240810 -1.919964 -12.705944 -0.128828 -0.884774 -17.590377 0.000001 0.000002 0.000000 0.302891 -1.773010 -18.245315 -0.196343 -1.095553 -21.084505 -0.000001 0.000002 -0.000000 0.620443 -0.707534 -24.266306 -0.027740 -0.954873 -17.650047 0.000001 0.000003 -0.000003 0.000000 0.000000 -0.000000 -1.219721 -0.284618 4.724593 4.623788 3.807456 67.911806 0.003492 18.543426 -0.000424 2.401646 -0.735409 -1.898758 8.265276 7.734436 -18.880810 5.407347 -20.572675 9.835188 0.000001 -0.000001 -0.000003 0.271345 4.264612 4.154767 0.095368 0.801141 17.592653 -0.000000 0.000002 0.000002 0.245845 1.930337 12.992157 -0.131767 0.893967 17.778825 0.000002 0.000000 -0.000002 0.296096 1.794274 18.638690 -0.197843 1.099616 21.166813 -0.000001 -0.000004 -0.000002 0.622696 0.717235 24.429126 -0.030328 0.963086 17.807174 0.000001 -0.000000 0.000000 0.000000 -0.000002 -0.000000 -0.000000 0.000000 -0.000000 -0.000000 0.000000 -0.000000 -0.000000 0.000000 -0.000000 -0.000000 0.000000 -0.000000 -0.000000 0.000000 -0.000000 -0.000000 0.000000 -0.000000 -0.000000 0.000000 -0.000000 -0.000000 0.000000 -0.000000 -0.000000 0.000000 -0.000000 0.000000 0.000000 -0.000000 0.000000 0.000000 -0.000000 0.000000 -0.000000 0.000000 
0.149306 80.741829 0.612359 2.901996 -12.150885 -0.594015 -0.000000 -0.000000 -0.000000 -20.285180 11.806332 13.749342 21.504622 5.256152 1.944382 -2.720618 5.478462 -10.825025 -0.000000 -0.000000 -0.000000 -0.000000 -0.000000 -0.000000 -0.000000 -0.000001 0.000000 -13.309198 -8.332248 -7.017232 21.535651 -5.033794 -1.759982 -10.295543 -0.531674 9.241075 -0.000000 -0.000000 0.000000 -0.000000 -0.000000 0.000000 0.000000 -0.000001 -0.000000 9.413613 1.709164 0.597296 2.745823 4.068234 0.905524 -9.107703 3.755930 1.814801 -4.798415 1.136500 -9.430944 7.361172 -4.778217 11.803092 -0.000000 -0.000001 -0.000000 -0.000000 -0.000001 -0.000000 -0.000000 -0.000001 -0.000000 -1.311609 0.529197 -4.962478 -2.922617 0.021943 -72.895699 0.000042 -14.822132 -0.000239 5.163009 -2.007066 -6.577189 8.316514 -7.750523 18.781907 5.299061 20.453587 -9.790648 -0.000001 0.000001 0.000001 0.255897 -4.257257 -4.150997 0.095366 -0.801275 -17.594984 -0.000001 0.000001 -0.000003 0.237194 -1.930310 -12.919515 -0.130459 -0.890002 -17.697812 -0.000000 -0.000000 0.000000 0.295434 -1.783790 -18.482705 -0.198025 -1.100020 -21.174425 -0.000001 -0.000002 -0.000001 0.618886 -0.713586 -24.384662 -0.030468 -0.963433 -17.813813 -0.000001 0.000000 0.000002 0.000000 0.000001 -0.000001 -1.134009 -0.519547 4.607378 5.397547 4.600122 67.820398 0.007693 19.058806 -0.000939 2.479783 -0.301320 -1.755873 8.265281 7.734436 -18.880806 5.407351 -20.572678 9.835193 0.000001 0.000001 0.000002 0.270309 4.275208 4.365226 0.093647 0.806656 17.716787 -0.000002 0.000001 0.000002 0.241746 1.953899 13.457395 -0.135990 0.907071 18.049192 0.000002 -0.000002 -0.000000 0.286101 1.822934 19.208654 -0.200981 1.107613 21.328446 0.000001 -0.000002 0.000000 0.619390 0.730668 24.690584 -0.035458 0.978933 18.111205 0.000002 -0.000001 -0.000000 -0.000000 -0.000001 -0.000000 -0.000000 -0.000000 0.000000 -0.000000 -0.000000 0.000000 -0.000000 -0.000000 0.000000 -0.000000 -0.000000 0.000000 -0.000000 -0.000000 0.000000 -0.000000 -0.000000 -0.000000 -0.000000 -0.000000 0.000000 -0.000000 -0.000000 0.000000 -0.000000 -0.000000 -0.000000 0.000002 0.000001 -0.000000 0.000002 0.000001 -0.000000 -0.000000 -0.000000 -0.000000 
